# xmcd CD database file
#
# Track frame offsets:
#	150
#	14751
#	30885
#	49222
#	62002
#
# Disc length: 1054 seconds
#
# Revision: 0
# Processed by: cddbd v1.5.2PL0 Copyright (c) Steve Scherf et al.
# Submitted via: CDex 1.51
#
DISCID=39041c05
DTITLE=AquilasKiss - AquilasKiss
DYEAR=2009
DGENRE=Blues
TTITLE0=Catalyst
TTITLE1=Julia
TTITLE2=We are the night
TTITLE3=Hypnotized
TTITLE4=Hit and Run
EXTD=YEAR: 2009
EXTT0=
EXTT1=
EXTT2=
EXTT3=
EXTT4=
PLAYORDER=
